<mxfile host="app.diagrams.net" modified="2023-03-31T18:02:50.302Z" agent="Mozilla/5.0 (Windows NT 10.0; Win64; x64) AppleWebKit/537.36 (KHTML, like Gecko) Chrome/111.0.0.0 Safari/537.36 Edg/111.0.1661.54" etag="vK-Y2ObL8KTFXpALZd-d" version="21.1.2" type="device">
  <diagram name="Page-1" id="eBy8ZkvExTetukCStS8d">
    <mxGraphModel dx="1450" dy="973" grid="1" gridSize="10" guides="1" tooltips="1" connect="1" arrows="1" fold="1" page="0" pageScale="1" pageWidth="850" pageHeight="1100" math="0" shadow="0">
      <root>
        <mxCell id="0" />
        <mxCell id="1" parent="0" />
        <mxCell id="Vt355reJCgS_s0mMAL4z-9" style="edgeStyle=orthogonalEdgeStyle;rounded=0;orthogonalLoop=1;jettySize=auto;html=1;entryX=0.5;entryY=0;entryDx=0;entryDy=0;" edge="1" parent="1" source="I1QNcydz0LpWliYTb4kh-4" target="Vt355reJCgS_s0mMAL4z-1">
          <mxGeometry relative="1" as="geometry">
            <Array as="points">
              <mxPoint x="120" y="10" />
              <mxPoint y="10" />
            </Array>
          </mxGeometry>
        </mxCell>
        <mxCell id="Vt355reJCgS_s0mMAL4z-10" style="edgeStyle=orthogonalEdgeStyle;rounded=0;orthogonalLoop=1;jettySize=auto;html=1;entryX=0;entryY=0.5;entryDx=0;entryDy=0;entryPerimeter=0;" edge="1" parent="1" source="I1QNcydz0LpWliYTb4kh-4" target="Vt355reJCgS_s0mMAL4z-52">
          <mxGeometry relative="1" as="geometry">
            <mxPoint x="200" y="55" as="targetPoint" />
          </mxGeometry>
        </mxCell>
        <mxCell id="I1QNcydz0LpWliYTb4kh-4" value="Valid?" style="strokeWidth=1;html=1;shape=mxgraph.flowchart.decision;whiteSpace=wrap;fillColor=#e1d5e7;strokeColor=#9673a6;" parent="1" vertex="1">
          <mxGeometry x="80" y="30" width="80" height="50" as="geometry" />
        </mxCell>
        <mxCell id="I1QNcydz0LpWliYTb4kh-16" value="Yes" style="text;html=1;align=center;verticalAlign=middle;whiteSpace=wrap;rounded=0;strokeWidth=1;" parent="1" vertex="1">
          <mxGeometry x="150" y="30" width="50" height="20" as="geometry" />
        </mxCell>
        <mxCell id="I1QNcydz0LpWliYTb4kh-17" value="No" style="text;html=1;align=center;verticalAlign=middle;whiteSpace=wrap;rounded=0;strokeWidth=1;" parent="1" vertex="1">
          <mxGeometry x="40" y="-10" width="50" height="20" as="geometry" />
        </mxCell>
        <mxCell id="Vt355reJCgS_s0mMAL4z-24" style="edgeStyle=orthogonalEdgeStyle;rounded=0;orthogonalLoop=1;jettySize=auto;html=1;entryX=0.5;entryY=0;entryDx=0;entryDy=0;" edge="1" parent="1" source="Vt355reJCgS_s0mMAL4z-52" target="Vt355reJCgS_s0mMAL4z-11">
          <mxGeometry relative="1" as="geometry">
            <mxPoint x="260" y="80" as="sourcePoint" />
          </mxGeometry>
        </mxCell>
        <mxCell id="Vt355reJCgS_s0mMAL4z-69" style="edgeStyle=orthogonalEdgeStyle;rounded=0;orthogonalLoop=1;jettySize=auto;html=1;entryX=0.499;entryY=0.142;entryDx=0;entryDy=0;entryPerimeter=0;" edge="1" parent="1" source="I1QNcydz0LpWliYTb4kh-26" target="Vt355reJCgS_s0mMAL4z-65">
          <mxGeometry relative="1" as="geometry" />
        </mxCell>
        <mxCell id="I1QNcydz0LpWliYTb4kh-26" value="Add dish" style="rounded=1;whiteSpace=wrap;html=1;absoluteArcSize=1;arcSize=14;strokeWidth=1;fillColor=#e1d5e7;strokeColor=#9673a6;" parent="1" vertex="1">
          <mxGeometry x="-10" y="243.75" width="80" height="50" as="geometry" />
        </mxCell>
        <mxCell id="Vt355reJCgS_s0mMAL4z-8" style="edgeStyle=orthogonalEdgeStyle;rounded=0;orthogonalLoop=1;jettySize=auto;html=1;entryX=0;entryY=0.5;entryDx=0;entryDy=0;entryPerimeter=0;" edge="1" parent="1" source="Vt355reJCgS_s0mMAL4z-1" target="I1QNcydz0LpWliYTb4kh-4">
          <mxGeometry relative="1" as="geometry" />
        </mxCell>
        <mxCell id="Vt355reJCgS_s0mMAL4z-1" value="Login" style="rounded=1;whiteSpace=wrap;html=1;absoluteArcSize=1;arcSize=14;strokeWidth=1;fillColor=#e1d5e7;strokeColor=#9673a6;" vertex="1" parent="1">
          <mxGeometry x="-40" y="30" width="80" height="50" as="geometry" />
        </mxCell>
        <mxCell id="Vt355reJCgS_s0mMAL4z-16" style="edgeStyle=orthogonalEdgeStyle;rounded=0;orthogonalLoop=1;jettySize=auto;html=1;" edge="1" parent="1" source="Vt355reJCgS_s0mMAL4z-11" target="Vt355reJCgS_s0mMAL4z-14">
          <mxGeometry relative="1" as="geometry" />
        </mxCell>
        <mxCell id="Vt355reJCgS_s0mMAL4z-11" value="Create Order" style="rounded=1;whiteSpace=wrap;html=1;absoluteArcSize=1;arcSize=14;strokeWidth=1;fillColor=#e1d5e7;strokeColor=#9673a6;" vertex="1" parent="1">
          <mxGeometry x="200" y="120" width="100" height="50" as="geometry" />
        </mxCell>
        <mxCell id="Vt355reJCgS_s0mMAL4z-26" style="edgeStyle=orthogonalEdgeStyle;rounded=0;orthogonalLoop=1;jettySize=auto;html=1;entryX=0.5;entryY=0;entryDx=0;entryDy=0;entryPerimeter=0;" edge="1" parent="1" source="Vt355reJCgS_s0mMAL4z-14" target="Vt355reJCgS_s0mMAL4z-60">
          <mxGeometry relative="1" as="geometry">
            <mxPoint x="250" y="280" as="targetPoint" />
          </mxGeometry>
        </mxCell>
        <mxCell id="Vt355reJCgS_s0mMAL4z-74" style="edgeStyle=orthogonalEdgeStyle;rounded=0;orthogonalLoop=1;jettySize=auto;html=1;entryX=1;entryY=0.5;entryDx=0;entryDy=0;entryPerimeter=0;" edge="1" parent="1" source="Vt355reJCgS_s0mMAL4z-14" target="Vt355reJCgS_s0mMAL4z-52">
          <mxGeometry relative="1" as="geometry">
            <Array as="points">
              <mxPoint x="330" y="223" />
              <mxPoint x="330" y="55" />
            </Array>
          </mxGeometry>
        </mxCell>
        <mxCell id="Vt355reJCgS_s0mMAL4z-14" value="" style="strokeWidth=1;html=1;shape=mxgraph.flowchart.decision;whiteSpace=wrap;fillColor=#e1d5e7;strokeColor=#9673a6;" vertex="1" parent="1">
          <mxGeometry x="230" y="210" width="40" height="25" as="geometry" />
        </mxCell>
        <mxCell id="Vt355reJCgS_s0mMAL4z-15" value="&lt;span style=&quot;color: rgb(0, 0, 0); font-family: Helvetica; font-size: 12px; font-style: normal; font-variant-ligatures: normal; font-variant-caps: normal; font-weight: 400; letter-spacing: normal; orphans: 2; text-align: center; text-indent: 0px; text-transform: none; widows: 2; word-spacing: 0px; -webkit-text-stroke-width: 0px; background-color: rgb(255, 255, 255); text-decoration-thickness: initial; text-decoration-style: initial; text-decoration-color: initial; float: none; display: inline !important;&quot;&gt;Check if table is available&lt;/span&gt;" style="text;whiteSpace=wrap;html=1;" vertex="1" parent="1">
          <mxGeometry x="160" y="190" width="80" height="40" as="geometry" />
        </mxCell>
        <mxCell id="Vt355reJCgS_s0mMAL4z-18" value="&lt;span style=&quot;color: rgb(0, 0, 0); font-family: Helvetica; font-size: 12px; font-style: normal; font-variant-ligatures: normal; font-variant-caps: normal; font-weight: 400; letter-spacing: normal; orphans: 2; text-align: center; text-indent: 0px; text-transform: none; widows: 2; word-spacing: 0px; -webkit-text-stroke-width: 0px; background-color: rgb(255, 255, 255); text-decoration-thickness: initial; text-decoration-style: initial; text-decoration-color: initial; float: none; display: inline !important;&quot;&gt;Unavailable&lt;/span&gt;" style="text;whiteSpace=wrap;html=1;" vertex="1" parent="1">
          <mxGeometry x="340" y="130" width="80" height="40" as="geometry" />
        </mxCell>
        <mxCell id="Vt355reJCgS_s0mMAL4z-21" value="&lt;span style=&quot;color: rgb(0, 0, 0); font-family: Helvetica; font-size: 12px; font-style: normal; font-variant-ligatures: normal; font-variant-caps: normal; font-weight: 400; letter-spacing: normal; orphans: 2; text-align: center; text-indent: 0px; text-transform: none; widows: 2; word-spacing: 0px; -webkit-text-stroke-width: 0px; background-color: rgb(255, 255, 255); text-decoration-thickness: initial; text-decoration-style: initial; text-decoration-color: initial; float: none; display: inline !important;&quot;&gt;Available&lt;/span&gt;" style="text;whiteSpace=wrap;html=1;" vertex="1" parent="1">
          <mxGeometry x="260" y="242.5" width="80" height="40" as="geometry" />
        </mxCell>
        <mxCell id="Vt355reJCgS_s0mMAL4z-70" style="edgeStyle=orthogonalEdgeStyle;rounded=0;orthogonalLoop=1;jettySize=auto;html=1;" edge="1" parent="1" source="Vt355reJCgS_s0mMAL4z-22" target="Vt355reJCgS_s0mMAL4z-65">
          <mxGeometry relative="1" as="geometry" />
        </mxCell>
        <mxCell id="Vt355reJCgS_s0mMAL4z-22" value="Delete dish" style="rounded=1;whiteSpace=wrap;html=1;absoluteArcSize=1;arcSize=14;strokeWidth=1;fillColor=#e1d5e7;strokeColor=#9673a6;" vertex="1" parent="1">
          <mxGeometry x="-10" y="321.25" width="80" height="50" as="geometry" />
        </mxCell>
        <mxCell id="Vt355reJCgS_s0mMAL4z-58" style="edgeStyle=orthogonalEdgeStyle;rounded=0;orthogonalLoop=1;jettySize=auto;html=1;entryX=1;entryY=0.5;entryDx=0;entryDy=0;" edge="1" parent="1" source="Vt355reJCgS_s0mMAL4z-29" target="Vt355reJCgS_s0mMAL4z-54">
          <mxGeometry relative="1" as="geometry" />
        </mxCell>
        <mxCell id="Vt355reJCgS_s0mMAL4z-29" value="Make payment" style="rounded=1;whiteSpace=wrap;html=1;absoluteArcSize=1;arcSize=14;strokeWidth=1;fillColor=#e1d5e7;strokeColor=#9673a6;" vertex="1" parent="1">
          <mxGeometry x="-190" y="280" width="100" height="50" as="geometry" />
        </mxCell>
        <mxCell id="Vt355reJCgS_s0mMAL4z-47" style="edgeStyle=orthogonalEdgeStyle;rounded=0;orthogonalLoop=1;jettySize=auto;html=1;entryX=1;entryY=0.5;entryDx=0;entryDy=0;" edge="1" parent="1" source="Vt355reJCgS_s0mMAL4z-43" target="I1QNcydz0LpWliYTb4kh-26">
          <mxGeometry relative="1" as="geometry" />
        </mxCell>
        <mxCell id="Vt355reJCgS_s0mMAL4z-48" style="edgeStyle=orthogonalEdgeStyle;rounded=0;orthogonalLoop=1;jettySize=auto;html=1;entryX=1;entryY=0.5;entryDx=0;entryDy=0;" edge="1" parent="1" source="Vt355reJCgS_s0mMAL4z-43" target="Vt355reJCgS_s0mMAL4z-22">
          <mxGeometry relative="1" as="geometry" />
        </mxCell>
        <mxCell id="Vt355reJCgS_s0mMAL4z-43" value="" style="verticalLabelPosition=bottom;verticalAlign=top;html=1;shape=mxgraph.flowchart.summing_function;" vertex="1" parent="1">
          <mxGeometry x="140" y="290" width="30" height="30" as="geometry" />
        </mxCell>
        <mxCell id="Vt355reJCgS_s0mMAL4z-51" style="edgeStyle=orthogonalEdgeStyle;rounded=0;orthogonalLoop=1;jettySize=auto;html=1;entryX=0;entryY=0.5;entryDx=0;entryDy=0;" edge="1" parent="1" source="Vt355reJCgS_s0mMAL4z-50" target="Vt355reJCgS_s0mMAL4z-1">
          <mxGeometry relative="1" as="geometry" />
        </mxCell>
        <mxCell id="Vt355reJCgS_s0mMAL4z-50" value="Homepage" style="strokeWidth=2;html=1;shape=mxgraph.flowchart.display;whiteSpace=wrap;fillColor=#d5e8d4;strokeColor=#82b366;" vertex="1" parent="1">
          <mxGeometry x="-180" y="26.25" width="95.83" height="57.5" as="geometry" />
        </mxCell>
        <mxCell id="Vt355reJCgS_s0mMAL4z-52" value="Order page" style="strokeWidth=2;html=1;shape=mxgraph.flowchart.display;whiteSpace=wrap;fillColor=#d5e8d4;strokeColor=#82b366;" vertex="1" parent="1">
          <mxGeometry x="202.08" y="26.25" width="95.83" height="57.5" as="geometry" />
        </mxCell>
        <mxCell id="Vt355reJCgS_s0mMAL4z-54" value="" style="ellipse;html=1;shape=endState;fillColor=#000000;strokeColor=#B5739D;" vertex="1" parent="1">
          <mxGeometry x="-260" y="285" width="40" height="40" as="geometry" />
        </mxCell>
        <mxCell id="Vt355reJCgS_s0mMAL4z-57" style="edgeStyle=orthogonalEdgeStyle;rounded=0;orthogonalLoop=1;jettySize=auto;html=1;entryX=0;entryY=0.5;entryDx=0;entryDy=0;entryPerimeter=0;exitX=1;exitY=0.5;exitDx=0;exitDy=0;" edge="1" parent="1" source="Vt355reJCgS_s0mMAL4z-55" target="Vt355reJCgS_s0mMAL4z-50">
          <mxGeometry relative="1" as="geometry" />
        </mxCell>
        <mxCell id="Vt355reJCgS_s0mMAL4z-55" value="" style="ellipse;html=1;shape=startState;fillColor=#000000;strokeColor=#B5739D;" vertex="1" parent="1">
          <mxGeometry x="-262.5" y="32.5" width="45" height="45" as="geometry" />
        </mxCell>
        <mxCell id="Vt355reJCgS_s0mMAL4z-59" value="Loop" style="shape=umlFrame;whiteSpace=wrap;html=1;pointerEvents=0;width=60;height=20;" vertex="1" parent="1">
          <mxGeometry x="-50" y="210" width="170" height="175" as="geometry" />
        </mxCell>
        <mxCell id="Vt355reJCgS_s0mMAL4z-61" style="edgeStyle=orthogonalEdgeStyle;rounded=0;orthogonalLoop=1;jettySize=auto;html=1;entryX=1;entryY=0.5;entryDx=0;entryDy=0;entryPerimeter=0;" edge="1" parent="1" source="Vt355reJCgS_s0mMAL4z-60" target="Vt355reJCgS_s0mMAL4z-43">
          <mxGeometry relative="1" as="geometry" />
        </mxCell>
        <mxCell id="Vt355reJCgS_s0mMAL4z-60" value="Menu" style="strokeWidth=2;html=1;shape=mxgraph.flowchart.display;whiteSpace=wrap;fillColor=#d5e8d4;strokeColor=#82b366;" vertex="1" parent="1">
          <mxGeometry x="202.08000000000004" y="276.25" width="95.83" height="57.5" as="geometry" />
        </mxCell>
        <mxCell id="Vt355reJCgS_s0mMAL4z-67" style="edgeStyle=orthogonalEdgeStyle;rounded=0;orthogonalLoop=1;jettySize=auto;html=1;entryX=1;entryY=0.5;entryDx=0;entryDy=0;" edge="1" parent="1" source="Vt355reJCgS_s0mMAL4z-65" target="Vt355reJCgS_s0mMAL4z-29">
          <mxGeometry relative="1" as="geometry" />
        </mxCell>
        <mxCell id="Vt355reJCgS_s0mMAL4z-65" value="" style="shape=line;html=1;strokeWidth=6;strokeColor=#9673a6;flipH=1;rotation=90;fillColor=#e1d5e7;" vertex="1" parent="1">
          <mxGeometry x="-110" y="303" width="80" height="4" as="geometry" />
        </mxCell>
      </root>
    </mxGraphModel>
  </diagram>
</mxfile>
